<svg id="Not_implemented" data-name="Not implemented" xmlns="http://www.w3.org/2000/svg" viewBox="0 0 43.53 43.53"><defs><style>.cls-1{fill:#fff;}</style></defs><title>Icon_14</title><path class="cls-1" d="M2032.56,9908.06a18.76,18.76,0,1,0,18.76,18.76A18.78,18.78,0,0,0,2032.56,9908.06Zm1.3,30.3a3.56,3.56,0,0,1-5,0l-10.46-10.46a3.56,3.56,0,1,1,5-5l7.94,7.94,12-12a3.56,3.56,0,1,1,5,5Z" transform="translate(-2010.79 -9905.06)"/><path class="cls-1" d="M2032.56,9906.06a20.76,20.76,0,1,1-20.76,20.76,20.79,20.79,0,0,1,20.76-20.76m0-1a21.76,21.76,0,1,0,21.76,21.76,21.76,21.76,0,0,0-21.76-21.76h0Z" transform="translate(-2010.79 -9905.06)"/></svg>