<svg id="Not_implemented" data-name="Not implemented" xmlns="http://www.w3.org/2000/svg" viewBox="0 0 43.53 43.53"><defs><style>.cls-1{fill:#fff;}</style></defs><title>Icon_15</title><path class="cls-1" d="M2091.83,9906.06a20.76,20.76,0,1,1-20.76,20.76,20.79,20.79,0,0,1,20.76-20.76m0-1a21.76,21.76,0,1,0,21.76,21.76,21.76,21.76,0,0,0-21.76-21.76h0Z" transform="translate(-2070.07 -9905.06)"/><path class="cls-1" d="M2091.83,9908.06a18.76,18.76,0,1,0,18.76,18.76A18.78,18.78,0,0,0,2091.83,9908.06Zm0.13,35.13h-0.26a3.09,3.09,0,0,1,0-6.17H2092A3.09,3.09,0,0,1,2092,9943.19Zm2.71-10.61c-0.07,1.14-1.32,2-2.83,2s-2.76-.89-2.83-2l-1.19-19c-0.11-1.72,1.72-3.16,4-3.16s4.13,1.44,4,3.16Z" transform="translate(-2070.07 -9905.06)"/></svg>