<svg xmlns="http://www.w3.org/2000/svg" viewBox="0 0 132.68674 132.68674"><defs><style>.a,.b,.c{fill:none;stroke:#318bbc;stroke-miterlimit:10;}.b{stroke-width:0.71302px;}.c{stroke-width:0.75332px;}</style></defs><title>0_Design for_Sndbox Home Page</title><circle class="a" cx="66.34337" cy="66.34337" r="65.84337"/><line class="b" x1="63.16212" y1="4.89403" x2="63.60975" y2="13.54072"/><line class="b" x1="69.52463" y1="127.79271" x2="69.07699" y2="119.14591"/><line class="b" x1="57.81995" y1="5.41421" x2="59.01923" y2="13.9878"/><line class="b" x1="74.86691" y1="127.27253" x2="73.66751" y2="118.69895"/><line class="b" x1="85.32102" y1="124.87734" x2="82.65072" y2="116.64083"/><line class="b" x1="47.36573" y1="7.8094" x2="50.03602" y2="16.04591"/><line class="b" x1="49.93817" y1="7.0419" x2="52.24665" y2="15.38638"/><line class="b" x1="82.74857" y1="125.64485" x2="80.44009" y2="117.30037"/><line class="b" x1="52.54144" y1="6.38641" x2="54.48348" y2="14.82312"/><line class="b" x1="80.14531" y1="126.30033" x2="78.20315" y2="117.86351"/><line class="b" x1="90.35479" y1="123.01088" x2="86.97615" y2="115.03699"/><line class="b" x1="42.33195" y1="9.67587" x2="45.71071" y2="17.64964"/><line class="b" x1="37.49039" y1="11.99548" x2="41.5505" y2="19.64297"/><line class="b" x1="95.19624" y1="120.69127" x2="91.13636" y2="113.04388"/><line class="b" x1="32.86951" y1="14.72628" x2="37.5797" y2="21.98947"/><line class="b" x1="99.81724" y1="117.96046" x2="95.10705" y2="110.69728"/><line class="b" x1="28.50134" y1="17.84422" x2="33.8263" y2="24.66876"/><line class="b" x1="104.18541" y1="114.84253" x2="98.86056" y2="108.01798"/><line class="b" x1="24.41739" y1="21.32588" x2="30.31708" y2="27.6605"/><line class="b" x1="108.26936" y1="111.36086" x2="102.36978" y2="105.02624"/><line class="b" x1="20.64701" y1="25.14542" x2="27.07711" y2="30.94264"/><line class="b" x1="112.03974" y1="107.54133" x2="105.60963" y2="101.7441"/><line class="b" x1="17.22911" y1="29.28414" x2="24.14026" y2="34.49899"/><line class="b" x1="115.45763" y1="103.4026" x2="108.5466" y2="98.18775"/><line class="b" x1="11.54166" y1="38.37656" x2="19.25315" y2="42.31193"/><line class="b" x1="121.14509" y1="94.31019" x2="113.43371" y2="90.37481"/><line class="b" x1="9.30763" y1="43.25714" x2="17.33349" y2="46.50577"/><line class="b" x1="123.37911" y1="89.4296" x2="115.35337" y2="86.18098"/><line class="b" x1="7.50337" y1="48.31319" x2="15.78318" y2="50.85032"/><line class="b" x1="125.18338" y1="84.37356" x2="116.90368" y2="81.83643"/><line class="b" x1="126.52426" y1="79.17513" x2="118.05584" y2="77.36951"/><line class="b" x1="6.16248" y1="53.5115" x2="14.63102" y2="55.31723"/><line class="b" x1="127.39794" y1="73.8793" x2="118.8067" y2="72.81892"/><line class="b" x1="5.2888" y1="58.80745" x2="13.88027" y2="59.86783"/><line class="b" x1="4.86816" y1="64.15749" x2="13.51879" y2="64.46499"/><line class="b" x1="127.81858" y1="68.52926" x2="119.16807" y2="68.22176"/><line class="b" x1="127.7926" y1="63.16212" x2="119.1458" y2="63.60975"/><line class="b" x1="4.89414" y1="69.52463" x2="13.54106" y2="69.07699"/><line class="b" x1="127.27242" y1="57.81984" x2="118.69872" y2="59.01923"/><line class="b" x1="5.41432" y1="74.8668" x2="13.98802" y2="73.6674"/><line class="b" x1="126.30022" y1="52.54144" x2="117.8634" y2="54.48359"/><line class="b" x1="6.38653" y1="80.14531" x2="14.82346" y2="78.20315"/><line class="b" x1="124.87723" y1="47.36573" x2="116.64072" y2="50.03614"/><line class="b" x1="7.80951" y1="85.32102" x2="16.04625" y2="82.6505"/><line class="b" x1="123.01088" y1="42.33195" x2="115.03688" y2="45.71082"/><line class="b" x1="9.67587" y1="90.35479" x2="17.64998" y2="86.97592"/><line class="b" x1="11.99548" y1="95.19624" x2="19.64309" y2="91.13624"/><line class="b" x1="120.69127" y1="37.49039" x2="113.04366" y2="41.5505"/><line class="b" x1="117.96046" y1="32.86951" x2="110.69728" y2="37.5797"/><line class="b" x1="14.72628" y1="99.81724" x2="21.98958" y2="95.10693"/><line class="b" x1="114.84253" y1="28.50134" x2="108.01798" y2="33.82619"/><line class="b" x1="17.84422" y1="104.18541" x2="24.66887" y2="98.86033"/><line class="b" x1="21.32588" y1="108.26936" x2="27.66061" y2="102.36967"/><line class="b" x1="111.36086" y1="24.41739" x2="105.02624" y2="30.31697"/><line class="b" x1="25.14542" y1="112.03974" x2="30.94264" y2="105.60963"/><line class="b" x1="107.54133" y1="20.64701" x2="101.7441" y2="27.077"/><line class="b" x1="29.28414" y1="115.45775" x2="34.49899" y2="108.5466"/><line class="b" x1="103.4026" y1="17.22911" x2="98.18787" y2="24.14015"/><line class="b" x1="33.70753" y1="118.49785" x2="38.29985" y2="111.15886"/><line class="b" x1="98.97921" y1="14.1889" x2="94.38689" y2="21.52766"/><line class="b" x1="38.37656" y1="121.1452" x2="42.31193" y2="113.43371"/><line class="b" x1="94.31019" y1="11.54154" x2="90.37481" y2="19.25292"/><line class="b" x1="43.25714" y1="123.37922" x2="46.50577" y2="115.35348"/><line class="b" x1="89.4296" y1="9.30752" x2="86.18098" y2="17.33315"/><line class="b" x1="84.37356" y1="7.50337" x2="81.83643" y2="15.78284"/><line class="b" x1="48.31319" y1="125.18338" x2="50.85032" y2="116.9039"/><line class="b" x1="55.31723" y1="118.05595" x2="53.51162" y2="126.52426"/><line class="b" x1="79.17524" y1="6.16248" x2="77.36962" y2="14.63068"/><line class="b" x1="73.8793" y1="5.2888" x2="72.81892" y2="13.87982"/><line class="b" x1="58.80745" y1="127.39794" x2="59.86783" y2="118.80681"/><line class="b" x1="64.15749" y1="127.81858" x2="64.46499" y2="119.16818"/><line class="b" x1="68.52926" y1="4.86816" x2="68.22176" y2="13.51845"/><line class="b" x1="66.84106" y1="127.86132" x2="66.7711" y2="119.20484"/><line class="b" x1="65.84569" y1="4.82542" x2="65.91564" y2="13.48179"/><line class="b" x1="60.48541" y1="5.0976" x2="61.30971" y2="13.71562"/><line class="b" x1="72.20134" y1="127.58914" x2="71.37703" y2="118.97102"/><line class="b" x1="77.51651" y1="126.84301" x2="75.94427" y2="118.32982"/><line class="b" x1="55.17023" y1="5.84374" x2="56.74247" y2="14.35682"/><line class="b" x1="87.85815" y1="123.99883" x2="84.83064" y2="115.88592"/><line class="b" x1="44.82859" y1="8.68792" x2="47.8561" y2="16.80071"/><line class="b" x1="39.88525" y1="10.78191" x2="43.60828" y2="18.60025"/><line class="b" x1="92.8015" y1="121.90483" x2="89.07846" y2="114.08649"/><line class="b" x1="97.53643" y1="119.37558" x2="93.14712" y2="111.91332"/><line class="b" x1="35.15043" y1="13.31106" x2="39.53974" y2="20.77342"/><line class="b" x1="102.03495" y1="116.44851" x2="97.01265" y2="109.39801"/><line class="b" x1="30.65179" y1="16.23824" x2="35.67409" y2="23.28874"/><line class="b" x1="26.42197" y1="19.54119" x2="32.03947" y2="26.12695"/><line class="b" x1="106.26478" y1="113.14556" x2="100.64728" y2="106.5599"/><line class="b" x1="28.66195" y1="29.26682" x2="22.49131" y2="23.19516"/><line class="b" x1="110.19543" y1="109.49158" x2="104.02491" y2="103.42004"/><line class="b" x1="18.8893" y1="27.17451" x2="25.56685" y2="32.68618"/><line class="b" x1="113.79744" y1="105.51212" x2="107.12001" y2="100.00057"/><line class="b" x1="12.81483" y1="36.01342" x2="20.34716" y2="40.28137"/><line class="b" x1="119.8718" y1="96.67332" x2="112.33959" y2="92.40548"/><line class="b" x1="14.1889" y1="33.70753" x2="21.52788" y2="38.29985"/><line class="b" x1="118.49785" y1="98.97921" x2="111.15886" y2="94.38689"/><line class="b" x1="15.66137" y1="31.46316" x2="22.79307" y2="36.3713"/><line class="b" x1="117.02537" y1="101.22358" x2="109.89378" y2="96.31555"/><line class="b" x1="122.3149" y1="91.89408" x2="114.43898" y2="88.2987"/><line class="b" x1="10.37184" y1="40.79267" x2="18.24799" y2="44.38804"/><line class="b" x1="8.35095" y1="45.76559" x2="16.51143" y2="48.66117"/><line class="b" x1="124.3359" y1="86.92104" x2="116.17554" y2="84.02557"/><line class="b" x1="6.76983" y1="50.89621" x2="15.15289" y2="53.06983"/><line class="b" x1="125.91692" y1="81.79054" x2="117.53397" y2="79.61692"/><line class="b" x1="5.66873" y1="56.1502" x2="14.20678" y2="57.58466"/><line class="b" x1="127.01801" y1="76.53644" x2="118.48008" y2="75.10209"/><line class="b" x1="127.6645" y1="71.20866" x2="119.03569" y2="70.52405"/><line class="b" x1="5.02225" y1="61.47808" x2="13.65106" y2="62.1627"/><line class="b" x1="127.86121" y1="65.84569" x2="119.20473" y2="65.91564"/><line class="b" x1="4.82553" y1="66.84106" x2="13.48213" y2="66.7711"/><line class="b" x1="127.58914" y1="60.48541" x2="118.9709" y2="61.30971"/><line class="b" x1="5.0976" y1="72.20134" x2="13.71607" y2="71.37703"/><line class="b" x1="126.84289" y1="55.17023" x2="118.3297" y2="56.74247"/><line class="b" x1="5.84385" y1="77.51651" x2="14.35715" y2="75.94427"/><line class="b" x1="125.64473" y1="49.93817" x2="117.30025" y2="52.24676"/><line class="b" x1="7.04201" y1="82.74857" x2="15.38672" y2="80.43998"/><line class="b" x1="123.99883" y1="44.82871" x2="115.88581" y2="47.8561"/><line class="b" x1="8.68792" y1="87.85804" x2="16.80105" y2="84.83064"/><line class="b" x1="121.90472" y1="39.88525" x2="114.08649" y2="43.60839"/><line class="b" x1="10.78202" y1="92.8015" x2="18.60048" y2="89.07835"/><line class="b" x1="119.37558" y1="35.15043" x2="111.91332" y2="39.53974"/><line class="b" x1="13.31106" y1="97.53632" x2="20.77365" y2="93.14701"/><line class="b" x1="116.44851" y1="30.65179" x2="109.39801" y2="35.67409"/><line class="b" x1="16.23824" y1="102.03495" x2="23.28885" y2="97.01254"/><line class="b" x1="19.54119" y1="106.26478" x2="26.12707" y2="100.64728"/><line class="b" x1="113.14556" y1="26.42197" x2="106.5599" y2="32.03947"/><line class="b" x1="109.49158" y1="22.49131" x2="103.42004" y2="28.66184"/><line class="b" x1="23.19516" y1="110.19543" x2="29.26682" y2="104.0248"/><line class="b" x1="27.17451" y1="113.79744" x2="32.68618" y2="107.1199"/><line class="b" x1="105.51223" y1="18.8893" x2="100.00057" y2="25.56673"/><line class="b" x1="101.22358" y1="15.66137" x2="96.31555" y2="22.79296"/><line class="b" x1="31.46305" y1="117.02537" x2="36.37119" y2="109.89378"/><line class="b" x1="36.01342" y1="119.87191" x2="40.28126" y2="112.3397"/><line class="b" x1="96.67332" y1="12.81483" x2="92.4056" y2="20.34693"/><line class="b" x1="91.89408" y1="10.37184" x2="88.29881" y2="18.24777"/><line class="b" x1="40.79267" y1="122.3149" x2="44.38793" y2="114.43898"/><line class="b" x1="45.76571" y1="124.33602" x2="48.66117" y2="116.17554"/><line class="b" x1="86.92115" y1="8.35084" x2="84.02557" y2="16.51109"/><line class="b" x1="81.79054" y1="6.76983" x2="79.61692" y2="15.15255"/><line class="b" x1="53.06983" y1="117.53408" x2="50.89621" y2="125.91692"/><line class="b" x1="56.1502" y1="127.01801" x2="57.58466" y2="118.4803"/><line class="b" x1="76.53655" y1="5.66873" x2="75.1022" y2="14.20644"/><line class="b" x1="61.47808" y1="127.66461" x2="62.1627" y2="119.03591"/><line class="b" x1="71.20866" y1="5.02213" x2="70.52405" y2="13.65083"/><circle class="c" cx="66.34339" cy="66.34341" r="49.76253"/></svg>