<svg xmlns="http://www.w3.org/2000/svg" viewBox="0 0 112.39722 112.39746"><defs><style>.a{fill:#fff;}</style></defs><title>Icon_16_Texture</title><path class="a" d="M2108.17851,10033.39775a43.34436,43.34436,0,1,0-43.34424,43.34375A43.39269,43.39269,0,0,0,2108.17851,10033.39775Zm-43.34424,42.69336a42.69336,42.69336,0,1,1,42.69287-42.69336A42.74174,42.74174,0,0,1,2064.83427,10076.09111Z" transform="translate(-2008.63554 -9977.19853)"/><rect class="a" x="2061.80687" y="9977.25867" width="0.65124" height="7.90902" transform="translate(-2521.95567 -9857.22517) rotate(-2.9638)"/><rect class="a" x="2067.21019" y="10081.62684" width="0.65124" height="7.90902" transform="translate(-2527.3448 -9856.80619) rotate(-2.9638)"/><rect class="a" x="2057.27024" y="9977.70045" width="0.65125" height="7.90827" transform="translate(-3371.46491 -9595.95124) rotate(-7.96225)"/><rect class="a" x="2071.74693" y="10081.18579" width="0.65125" height="7.9083" transform="matrix(0.99036, -0.13855, 0.13855, 0.99036, -3385.9568, -9592.84282)"/><rect class="a" x="2080.62463" y="10079.15127" width="0.65147" height="7.90897" transform="translate(-5016.93035 -8843.89499) rotate(-17.96346)"/><rect class="a" x="2048.3922" y="9979.73428" width="0.65147" height="7.90897" transform="translate(-4987.84034 -8858.68204) rotate(-17.96346)"/><rect class="a" x="2050.57673" y="9979.08274" width="0.65155" height="7.90931" transform="translate(-4595.90933 -9069.10232) rotate(-15.4622)"/><rect class="a" x="2078.44002" y="10079.80247" width="0.65155" height="7.90931" transform="translate(-4621.75299 -9058.0285) rotate(-15.4622)"/><rect class="a" x="2052.78748" y="9978.52646" width="0.65145" height="7.9086" transform="translate(-4195.7178 -9262.18444) rotate(-12.96373)"/><rect class="a" x="2076.22937" y="10080.35946" width="0.65145" height="7.9086" transform="translate(-4217.96494 -9254.33013) rotate(-12.96373)"/><rect class="a" x="2084.89956" y="10077.56476" width="0.65115" height="7.91109" transform="translate(-5776.59071 -8364.76884) rotate(-22.96317)"/><rect class="a" x="2044.11758" y="9981.31867" width="0.65115" height="7.91109" transform="translate(-5742.27307 -8388.30643) rotate(-22.96317)"/><rect class="a" x="2040.00613" y="9983.28946" width="0.65091" height="7.90896" transform="translate(-6453.97885 -7854.05121) rotate(-27.96678)"/><rect class="a" x="2089.01113" y="10075.59616" width="0.65091" height="7.90885" transform="translate(-6491.3281 -7820.46942) rotate(-27.96522)"/><polygon class="a" points="30.197 15.505 25.894 8.87 25.347 9.224 29.65 15.858 30.197 15.505"/><polygon class="a" points="82.201 96.893 86.503 103.527 87.05 103.174 82.747 96.539 82.201 96.893"/><rect class="a" x="2032.37228" y="9988.2573" width="0.65128" height="7.90687" transform="translate(-7725.87205 -6611.80095) rotate(-37.96824)"/><rect class="a" x="2096.64486" y="10070.63042" width="0.65128" height="7.90672" transform="translate(-7762.78487 -6555.0159) rotate(-37.96684)"/><rect class="a" x="2028.90432" y="9991.21337" width="0.65091" height="7.90782" transform="translate(-8276.11685 -5913.78711) rotate(-42.96075)"/><rect class="a" x="2100.11307" y="10067.67333" width="0.65091" height="7.90782" transform="translate(-8309.12739 -5844.75358) rotate(-42.96075)"/><rect class="a" x="2025.70189" y="9994.45657" width="0.65173" height="7.90872" transform="translate(-8765.07982 -5169.27839) rotate(-47.96165)"/><rect class="a" x="2103.31468" y="10064.42923" width="0.65173" height="7.90872" transform="translate(-8791.40718 -5088.51861) rotate(-47.96165)"/><rect class="a" x="2022.79997" y="9997.97166" width="0.65088" height="7.90882" transform="translate(-9188.14296 -4384.70673) rotate(-52.96349)"/><rect class="a" x="2106.21757" y="10060.91414" width="0.65088" height="7.90863" transform="matrix(0.60234, -0.79824, 0.79824, 0.60234, -9205.13218, -4293.26077)"/><rect class="a" x="2017.96986" y="10005.69296" width="0.65119" height="7.90861" transform="translate(-9823.61306 -2719.51376) rotate(-62.96509)"/><rect class="a" x="2111.04737" y="10053.19307" width="0.65119" height="7.90839" transform="translate(-9815.11428 -2610.83635) rotate(-62.96428)"/><rect class="a" x="2016.07263" y="10009.83707" width="0.65121" height="7.90944" transform="translate(-10030.97369 -1851.70221) rotate(-67.96213)"/><rect class="a" x="2112.94446" y="10049.04801" width="0.65121" height="7.90944" transform="translate(-10006.79607 -1737.40998) rotate(-67.96213)"/><rect class="a" x="2014.54019" y="10014.13047" width="0.65164" height="7.91053" transform="translate(-10162.59524 -967.43343) rotate(-72.9654)"/><rect class="a" x="2114.47647" y="10044.75352" width="0.65164" height="7.91053" transform="translate(-10121.21477 -850.22951) rotate(-72.9654)"/><rect class="a" x="2115.61545" y="10040.33986" width="0.65103" height="7.90973" transform="translate(-10157.41241 41.98526) rotate(-77.96379)"/><rect class="a" x="2013.40182" y="10018.54494" width="0.65103" height="7.90973" transform="translate(-10216.99566 -75.23133) rotate(-77.96379)"/><rect class="a" x="2116.35734" y="10035.84343" width="0.65137" height="7.90747" transform="translate(-10115.43823 933.35345) rotate(-82.96297)"/><rect class="a" x="2012.65971" y="10023.04351" width="0.65137" height="7.90771" transform="translate(-10193.72549 819.24384) rotate(-82.96319)"/><rect class="a" x="2012.30282" y="10027.58716" width="0.6508" height="7.90731" transform="translate(-10092.58195 1710.13946) rotate(-87.96873)"/><rect class="a" x="2116.71481" y="10031.30017" width="0.6508" height="7.90707" transform="translate(-9995.58331 1818.05607) rotate(-87.96867)"/><rect class="a" x="2113.06338" y="10030.36997" width="7.90947" height="0.65126" transform="translate(-2523.49286 -9854.57296) rotate(-2.95832)"/><rect class="a" x="2008.69546" y="10035.77329" width="7.90947" height="0.65126" transform="translate(-2523.91081 -9859.95212) rotate(-2.95832)"/><rect class="a" x="2112.6223" y="10025.83308" width="7.90806" height="0.65083" transform="translate(-3377.39686 -9587.23073) rotate(-7.96425)"/><rect class="a" x="2009.138" y="10040.31013" width="7.90817" height="0.65083" transform="matrix(0.99037, -0.13843, 0.13843, 0.99037, -3379.17751, -9601.85773)"/><rect class="a" x="2111.79645" y="10021.35089" width="7.90866" height="0.65134" transform="translate(-4203.19378 -9247.00402) rotate(-12.96545)"/><rect class="a" x="2009.96319" y="10044.7923" width="7.90866" height="0.65134" transform="translate(-4211.04936 -9269.25405) rotate(-12.96545)"/><rect class="a" x="2110.58767" y="10016.95562" width="7.90921" height="0.65085" transform="translate(-4994.04084 -8837.29003) rotate(-17.95732)"/><rect class="a" x="2011.17127" y="10049.18756" width="7.90974" height="0.65085" transform="translate(-5009.78588 -8865.82936) rotate(-17.9635)"/><rect class="a" x="2109.00168" y="10012.68106" width="7.91128" height="0.65115" transform="translate(-5748.14031 -8359.04616) rotate(-22.96642)"/><rect class="a" x="2012.75553" y="10053.4628" width="7.9109" height="0.65115" transform="translate(-5770.71936 -8394.02493) rotate(-22.95991)"/><rect class="a" x="2014.72603" y="10057.57362" width="7.90972" height="0.65217" transform="translate(-6489.18239 -7856.32962) rotate(-27.96347)"/><rect class="a" x="2107.03267" y="10008.56873" width="7.90972" height="0.65217" transform="translate(-6455.54011 -7818.67281) rotate(-27.9643)"/><rect class="a" x="2104.71459" y="10004.64513" width="7.90782" height="0.65172" transform="translate(-7112.98458 -7219.17899) rotate(-32.96395)"/><rect class="a" x="2017.04591" y="10061.49767" width="7.90803" height="0.65172" transform="translate(-7157.90884 -7257.84838) rotate(-32.96299)"/><rect class="a" x="2102.06702" y="10000.93475" width="7.9073" height="0.65158" transform="translate(-7715.38522 -6565.41103) rotate(-37.96358)"/><rect class="a" x="2019.6937" y="10065.2077" width="7.90809" height="0.65158" transform="translate(-7772.87766 -6601.87326) rotate(-37.96807)"/><rect class="a" x="2022.65042" y="10068.67613" width="7.90798" height="0.65124" transform="translate(-8327.53542 -5895.22274) rotate(-42.96455)"/><rect class="a" x="2099.11011" y="9997.46715" width="7.9078" height="0.65124" transform="translate(-8258.6187 -5862.03626) rotate(-42.96575)"/><rect class="a" x="2025.8937" y="10071.87838" width="7.90874" height="0.65104" transform="translate(-8818.85181 -5141.67651) rotate(-47.96414)"/><rect class="a" x="2095.86586" y="9994.2651" width="7.90874" height="0.65104" transform="translate(-8738.0873 -5115.35015) rotate(-47.96414)"/><rect class="a" x="2029.40813" y="10074.78046" width="7.90916" height="0.65157" transform="translate(-9242.46115 -4347.48882) rotate(-52.96315)"/><rect class="a" x="2092.3512" y="9991.36249" width="7.90902" height="0.65157" transform="translate(-9150.94934 -4330.18998) rotate(-52.96456)"/><rect class="a" x="2033.16484" y="10077.36251" width="7.90845" height="0.65153" transform="translate(-9595.10929 -3518.36595) rotate(-57.96387)"/><rect class="a" x="2088.59501" y="9988.78048" width="7.90845" height="0.65153" transform="translate(-9493.99006 -3512.97037) rotate(-57.96387)"/><polygon class="a" points="33.956 99.067 30.361 106.111 30.941 106.408 34.536 99.364 33.956 99.067"/><polygon class="a" points="78.441 13.33 82.036 6.286 81.456 5.989 77.861 13.033 78.441 13.33"/><rect class="a" x="2041.27415" y="10081.50767" width="7.9098" height="0.65125" transform="translate(-10076.12856 -1781.9433) rotate(-67.9651)"/><rect class="a" x="2080.4846" y="9984.6356" width="7.9098" height="0.65125" transform="translate(-9961.83265 -1806.12541) rotate(-67.9651)"/><rect class="a" x="2076.19084" y="9983.10334" width="7.90967" height="0.65132" transform="translate(-10083.24145 -930.18877) rotate(-72.96163)"/><rect class="a" x="2045.56779" y="10083.03986" width="7.90967" height="0.65132" transform="translate(-10200.44176 -888.81381) rotate(-72.96163)"/><polygon class="a" points="44.158 111.105 44.795 111.242 46.445 103.506 45.808 103.369 44.158 111.105"/><polygon class="a" points="68.239 1.292 67.602 1.155 65.952 8.892 66.59 9.028 68.239 1.292"/><rect class="a" x="2067.28021" y="9981.22243" width="7.90719" height="0.65143" transform="translate(-10097.85805 832.86651) rotate(-82.93891)"/><rect class="a" x="2054.48089" y="10084.92067" width="7.90719" height="0.65143" transform="translate(-10211.99573 911.11513) rotate(-82.93891)"/><rect class="a" x="2059.02465" y="10085.27767" width="7.90635" height="0.6513" transform="translate(-10098.9663 1807.10914) rotate(-87.93773)"/><rect class="a" x="2062.73729" y="9980.86556" width="7.90635" height="0.6513" transform="matrix(0.03599, -0.99935, 0.99935, 0.03599, -9991.04278, 1710.16462)"/><rect class="a" x="2064.93118" y="10081.68571" width="0.65139" height="7.90749" transform="translate(-2090.15223 -9960.16238) rotate(-0.46348)"/><rect class="a" x="2064.08572" y="9977.20133" width="0.65139" height="7.90749" transform="translate(-2089.30707 -9960.17263) rotate(-0.46348)"/><rect class="a" x="2059.5337" y="9977.43155" width="0.65144" height="7.90897" transform="translate(-2949.50295 -9735.76765) rotate(-5.4628)"/><rect class="a" x="2069.48316" y="10081.45401" width="0.65144" height="7.90897" transform="translate(-2959.36065 -9734.34802) rotate(-5.4628)"/><polygon class="a" points="64.649 103.747 66.085 111.524 66.726 111.405 65.289 103.628 64.649 103.747"/><polygon class="a" points="47.749 8.649 46.312 0.873 45.672 0.992 47.108 8.769 47.749 8.649"/><polygon class="a" points="72.781 101.569 75.547 108.98 76.157 108.752 73.392 101.341 72.781 101.569"/><polygon class="a" points="39.616 10.828 36.85 3.417 36.24 3.646 39.005 11.057 39.616 10.828"/><rect class="a" x="2042.03984" y="9982.25773" width="0.65086" height="7.9109" transform="translate(-6103.32568 -8129.30584) rotate(-25.46106)"/><rect class="a" x="2086.97759" y="10076.62589" width="0.65086" height="7.9109" transform="translate(-6139.52987 -8100.82195) rotate(-25.46106)"/><rect class="a" x="2090.99822" y="10074.47887" width="0.65135" height="7.90904" transform="translate(-6829.27894 -7525.89851) rotate(-30.46115)"/><rect class="a" x="2038.01873" y="9984.40661" width="0.65135" height="7.90904" transform="translate(-6790.92904 -7565.18907) rotate(-30.46115)"/><polygon class="a" points="83.949 95.717 88.537 102.158 89.068 101.781 84.48 95.34 83.949 95.717"/><polygon class="a" points="28.448 16.681 23.86 10.239 23.329 10.616 27.917 17.058 28.448 16.681"/><polygon class="a" points="25.11 19.25 19.979 13.234 19.483 13.656 24.615 19.672 25.11 19.25"/><polygon class="a" points="87.287 93.147 92.419 99.163 92.914 98.741 87.783 92.726 87.287 93.147"/><rect class="a" x="2027.26809" y="9992.80105" width="0.65189" height="7.90825" transform="translate(-8528.53389 -5547.00652) rotate(-45.46028)"/><rect class="a" x="2101.74832" y="10066.08606" width="0.65189" height="7.90757" transform="translate(-8559.01887 -5471.27553) rotate(-45.46532)"/><rect class="a" x="2024.20969" y="9996.17921" width="0.65101" height="7.90974" transform="translate(-8985.1097 -4781.56805) rotate(-50.46298)"/><rect class="a" x="2104.80772" y="10062.70567" width="0.65101" height="7.90955" transform="translate(-9007.03051 -4695.41142) rotate(-50.46185)"/><rect class="a" x="2019.05104" y="10003.68605" width="0.65119" height="7.90875" transform="translate(-9691.5668 -3146.9738) rotate(-60.4587)"/><rect class="a" x="2109.96608" y="10055.19972" width="0.65119" height="7.90875" transform="translate(-9690.29441 -3041.76284) rotate(-60.4587)"/><rect class="a" x="2020.21753" y="10001.72764" width="0.65194" height="7.90858" transform="translate(-9541.75743 -3566.47759) rotate(-57.96237)"/><rect class="a" x="2108.79883" y="10057.1583" width="0.65194" height="7.90858" transform="translate(-9547.15496 -3465.36121) rotate(-57.96237)"/><rect class="a" x="2021.46812" y="9999.82201" width="0.65173" height="7.90832" transform="matrix(0.56692, -0.82377, 0.82377, 0.56692, -9373.86741, -3979.28484)"/><rect class="a" x="2107.54844" y="10059.0642" width="0.65173" height="7.90832" transform="matrix(0.56692, -0.82377, 0.82377, 0.56692, -9385.38993, -3882.71781)"/><rect class="a" x="2112.04103" y="10051.14114" width="0.65069" height="7.90872" transform="translate(-9920.59695 -2175.9641) rotate(-65.46427)"/><rect class="a" x="2016.9767" y="10007.74455" width="0.65069" height="7.90894" transform="translate(-9936.73668 -2287.6925) rotate(-65.465)"/><rect class="a" x="2015.26046" y="10011.96739" width="0.6508" height="7.90954" transform="translate(-10106.46096 -1410.48151) rotate(-70.46716)"/><rect class="a" x="2113.75728" y="10046.91759" width="0.6508" height="7.90954" transform="translate(-10073.83507 -1294.38848) rotate(-70.46716)"/><rect class="a" x="2013.91722" y="10016.32353" width="0.65172" height="7.91113" transform="translate(-10199.49346 -521.7928) rotate(-75.46586)"/><rect class="a" x="2115.09935" y="10042.55986" width="0.65172" height="7.91113" transform="translate(-10149.10039 -404.19653) rotate(-75.46586)"/><rect class="a" x="2012.98236" y="10020.78676" width="0.65158" height="7.9085" transform="translate(-10215.05747 373.05621) rotate(-80.46847)"/><rect class="a" x="2116.03436" y="10038.09926" width="0.65158" height="7.9085" transform="translate(-10146.14338 489.13126) rotate(-80.46847)"/><rect class="a" x="2116.58397" y="10033.57553" width="0.6505" height="7.90714" transform="translate(-10065.3393 1375.96496) rotate(-85.45937)"/><rect class="a" x="2012.43383" y="10025.31185" width="0.6505" height="7.90714" transform="translate(-10153.00657 1264.53222) rotate(-85.45937)"/><rect class="a" x="2113.12247" y="10032.6492" width="7.90773" height="0.65041" transform="translate(-2091.41542 -9959.37366) rotate(-0.47315)"/><rect class="a" x="2008.6381" y="10033.49491" width="7.90797" height="0.65041" transform="translate(-2089.11128 -9960.72038) rotate(-0.45991)"/><rect class="a" x="2112.89102" y="10028.09695" width="7.90848" height="0.6514" transform="translate(-2953.77949 -9730.111) rotate(-5.46314)"/><rect class="a" x="2008.8688" y="10038.04617" width="7.90872" height="0.6514" transform="translate(-2955.17041 -9739.97797) rotate(-5.46297)"/><rect class="a" x="2112.2575" y="10023.58326" width="7.90818" height="0.65143" transform="translate(-3794.2752 -9426.02197) rotate(-10.4659)"/><rect class="a" x="2009.50262" y="10042.55983" width="7.90842" height="0.65143" transform="translate(-3799.37848 -9444.39304) rotate(-10.46558)"/><rect class="a" x="2111.23975" y="10019.14032" width="7.90878" height="0.6506" transform="translate(-4603.17338 -9050.70615) rotate(-15.46144)"/><rect class="a" x="2010.51978" y="10047.0036" width="7.90901" height="0.6506" transform="translate(-4614.17121 -9076.58667) rotate(-15.46096)"/><rect class="a" x="2109.84126" y="10014.80103" width="7.91035" height="0.65047" transform="matrix(0.93689, -0.34962, 0.34962, 0.93689, -5376.73719, -8606.12704)"/><rect class="a" x="2011.9167" y="10051.34302" width="7.91057" height="0.65047" transform="translate(-5395.59894 -8638.11568) rotate(-20.46353)"/><rect class="a" x="2108.06276" y="10010.60287" width="7.91045" height="0.65128" transform="translate(-6107.96265 -8096.36853) rotate(-25.46654)"/><rect class="a" x="2013.6951" y="10055.54037" width="7.91067" height="0.65128" transform="translate(-6136.34516 -8132.66033) rotate(-25.46578)"/><rect class="a" x="2105.91601" y="10006.58226" width="7.90854" height="0.65051" transform="translate(-6791.01451 -7525.86187) rotate(-30.46537)"/><rect class="a" x="2015.84376" y="10059.56175" width="7.90875" height="0.65051" transform="translate(-6830.19208 -7564.32252) rotate(-30.46447)"/><rect class="a" x="2103.43061" y="10002.76122" width="7.90766" height="0.65196" transform="matrix(0.81449, -0.58018, 0.58018, 0.81449, -7421.3111, -6898.81496)"/><rect class="a" x="2018.33003" y="10063.38134" width="7.90766" height="0.65196" transform="matrix(0.81449, -0.58018, 0.58018, 0.81449, -7472.26924, -6936.94302)"/><rect class="a" x="2021.13513" y="10066.97368" width="7.90755" height="0.65185" transform="translate(-8057.71474 -6254.92184) rotate(-40.46468)"/><rect class="a" x="2100.62583" y="9999.16899" width="7.90737" height="0.65185" transform="translate(-7994.82231 -6219.39044) rotate(-40.46583)"/><rect class="a" x="2097.52265" y="9995.83175" width="7.90791" height="0.65154" transform="translate(-8506.28947 -5494.14568) rotate(-45.4628)"/><rect class="a" x="2024.23798" y="10070.31124" width="7.90791" height="0.65154" transform="translate(-8581.26294 -5524.14099) rotate(-45.4628)"/><rect class="a" x="2027.61623" y="10073.37055" width="7.90996" height="0.65107" transform="translate(-9039.59042 -4748.8358) rotate(-50.46659)"/><rect class="a" x="2094.14248" y="9992.77241" width="7.90921" height="0.65107" transform="translate(-8952.87575 -4727.53333) rotate(-50.46209)"/><rect class="a" x="2090.50096" y="9990.03156" width="7.90832" height="0.65133" transform="translate(-9331.34531 -3925.24011) rotate(-55.46415)"/><rect class="a" x="2031.25883" y="10076.11164" width="7.90846" height="0.65133" transform="translate(-9427.80944 -3937.00307) rotate(-55.46269)"/><polygon class="a" points="32.108 98.056 28.209 104.937 28.776 105.257 32.675 98.376 32.108 98.056"/><polygon class="a" points="80.29 14.342 84.188 7.461 83.621 7.141 79.723 14.021 80.29 14.342"/><polygon class="a" points="76.551 12.398 79.835 5.204 79.243 4.935 75.958 12.129 76.551 12.398"/><polygon class="a" points="35.846 99.999 32.562 107.193 33.154 107.463 36.439 100.269 35.846 99.999"/><polygon class="a" points="39.739 101.61 37.094 109.065 37.708 109.284 40.353 101.829 39.739 101.61"/><polygon class="a" points="72.658 10.787 75.303 3.332 74.689 3.113 72.044 10.568 72.658 10.787"/><rect class="a" x="2073.99707" y="9982.48076" width="7.91048" height="0.65137" transform="translate(-10115.47279 -488.73194) rotate(-75.46282)"/><rect class="a" x="2047.76027" y="10083.66288" width="7.91143" height="0.65137" transform="translate(-10233.08325 -438.02533) rotate(-75.46459)"/><rect class="a" x="2052.22383" y="10084.59751" width="7.90814" height="0.65125" transform="translate(-10238.42443 471.63338) rotate(-80.50235)"/><rect class="a" x="2069.53633" y="9981.54576" width="7.90814" height="0.65125" transform="translate(-10122.28015 403.92092) rotate(-80.50944)"/><polygon class="a" points="51.429 112.189 52.079 112.24 52.704 104.358 52.055 104.308 51.429 112.189"/><polygon class="a" points="60.968 0.208 60.318 0.157 59.693 8.039 60.342 8.09 60.968 0.208"/></svg>